<?xml version="1.0" encoding="UTF-8" standalone="no"?>
<!-- Created with Inkscape (http://www.inkscape.org/) -->

<svg
   width="114.35148mm"
   height="109.18477mm"
   viewBox="0 0 114.35148 109.18477"
   version="1.1"
   id="svg1"
   xmlns="http://www.w3.org/2000/svg"
   xmlns:svg="http://www.w3.org/2000/svg">
  <defs
     id="defs1" />
  <g
     id="layer1"
     transform="translate(-47.60248,-156.77676)">
    <g
       id="g5"
       transform="translate(46.895596,33.642493)">
      <path
         id="path2-6"
         style="fill:#1ae9eb;fill-opacity:1;stroke:#ffffff;stroke-width:0.079375;paint-order:markers stroke fill"
         d="M 95.866131,49.564203 81.129563,88.820205 39.299558,91.72442 72.080503,117.87011 61.916265,158.55032 89.134242,140.58707 a 8.5603762,13.850979 0 0 1 -1.011308,-6.53035 8.5603762,13.850979 0 0 1 8.560201,-13.85083 8.5603762,13.850979 0 0 1 8.560715,13.85083 8.5603762,13.850979 0 0 1 -0.86506,6.06733 l 28.08201,17.56689 -11.15229,-40.42028 32.13447,-26.936852 -41.8884,-1.884123 z"
         transform="translate(-38.488238,73.679437)" />
      <path
         id="path4-1"
         style="fill:#1793d1;fill-opacity:1;stroke:#ffffff;stroke-width:0.079375;paint-order:markers stroke fill"
         d="m 58.176811,127.57568 -13.36611,27.93938 12.576494,9.60199 -13.405383,-7.86928 -1.800407,3.76256 -36.7367761,4.91598 15.7225541,14.95464 -3.021521,-10.90269 5.460132,13.22244 8.69456,8.26978 -1.190625,6.50142 6.809403,10.89545 -7.34167,-7.98969 -4.95422,27.05055 25.054802,-13.5661 a 8.5603762,13.850979 0 0 1 -1.043348,-6.62595 8.5603762,13.850979 0 0 1 8.560201,-13.85084 8.5603762,13.850979 0 0 1 8.560718,13.85084 8.5603762,13.850979 0 0 1 -1.034045,6.59908 l 25.104411,13.56196 -3.779098,-20.52484 -8.062557,-3.07062 7.756116,1.4056 -2.626196,-14.26166 26.831434,-25.57002 -19.300111,-2.56366 6.596496,5.03638 -9.159647,-5.37693 -14.878679,-1.97611 -3.469038,-7.23367 -11.737269,-4.47001 10.506853,1.90428 z" />
    </g>
  </g>
</svg>
